<?xml version="1.0" encoding="UTF-8" standalone="no"?><!DOCTYPE svg PUBLIC "-//W3C//DTD SVG 1.1//EN" "http://www.w3.org/Graphics/SVG/1.1/DTD/svg11.dtd"><svg width="100%" height="100%" viewBox="0 0 1446 215" version="1.1" xmlns="http://www.w3.org/2000/svg" xmlns:xlink="http://www.w3.org/1999/xlink" xml:space="preserve" xmlns:serif="http://www.serif.com/" style="fill-rule:evenodd;clip-rule:evenodd;stroke-linejoin:round;stroke-miterlimit:2;"><rect id="Artboard1" x="0" y="0" width="1445.61" height="214.903" style="fill:none;"/><g id="Group_571"><path id="Path_247" d="M612.806,196.583c-9.695,8.53 -27.325,14.396 -47.304,14.396c-37.025,0 -72.287,-20.833 -72.287,-73.454c-0,-51.117 37.608,-72.875 75.812,-72.875c20.575,0 39.375,5.879 47.609,11.763c-3.501,8.513 -6.064,17.382 -7.646,26.45l-5,0.291c-2.423,-16.102 -16.956,-27.804 -33.204,-26.737c-33.213,-0 -46.717,29.087 -46.717,60.833c-0,34.971 15.858,59.346 48.771,59.346c16.754,-0 30.833,-6.458 39.375,-18.8l3.525,1.767c-1.705,5.527 -2.686,11.253 -2.917,17.033" style="fill:#002855;fill-rule:nonzero;"/><path id="Path_248" d="M705.961,74.942c-27.321,-0 -36.73,29.683 -37.917,50.246l30.275,-0c12.342,-0 30.833,-0.292 39.662,-0.58c0,-20.87 -3.52,-49.666 -32.029,-49.666m60.834,49.666c-0.059,3.739 -0.354,7.47 -0.884,11.171l-1.766,1.75c-22.042,-0.287 -47.309,-0.591 -63.171,-0.591l-33.204,-0c-0.241,2.439 -0.34,4.89 -0.296,7.341c-0,29.392 16.162,53.496 49.366,53.496c16.292,0.277 31.939,-6.472 42.917,-18.512l2.938,1.458c-1.425,5.397 -2.408,10.901 -2.938,16.458c-15.063,9.668 -32.649,14.678 -50.546,14.4c-44.375,0 -72.283,-27.337 -72.283,-72.591c-0,-42.892 25.862,-74.917 70.229,-74.917c41.429,-0 59.65,27.917 59.65,60.533" style="fill:#002855;fill-rule:nonzero;"/><path id="Path_249" d="M905.202,206.871c-5.579,-0 -12.05,0.304 -15.575,0.592c1.184,-18.221 1.767,-52.021 1.767,-74.046l-0,-8.809c-0,-19.683 -3.821,-42.616 -29.383,-42.616c-23.8,-0 -37.609,17.341 -37.609,46.429l0,19.683c0,17.646 0.588,42.617 2.054,59.363c-4.116,-0.288 -10.279,-0.592 -15.862,-0.592c-5.288,0 -11.467,0.304 -15.575,0.592c1.471,-16.454 2.054,-49.075 2.054,-66.704l0,-12.342c0,-17.629 -0.583,-40.833 -2.054,-60.229c5.587,0.287 10.287,0.579 15.575,0.579c5,-0 10.279,-0.292 14.396,-0.579c-0.588,7.054 -0.884,14.975 -0.884,23.508l1.18,0c9.766,-16.315 27.405,-26.367 46.42,-26.454c37.617,-0 47.917,22.629 47.917,50.833c0,9.7 -0.879,23.513 -0.879,37.313l-0,3.537c-0,12.917 0.583,38.775 1.467,50.538c-3.534,-0.288 -10,-0.592 -15,-0.592" style="fill:#002855;fill-rule:nonzero;"/><path id="Path_250" d="M995.406,209.229c-22.629,0 -30.833,-13.525 -30.833,-36.446c0,-21.454 1.767,-58.75 1.767,-92.262l-22.917,-0l0,-11.45l23.217,-0c-0,-6.475 -0,-18.521 -0.588,-30.275c9.822,-2.958 19.284,-6.998 28.213,-12.046l2.054,1.179c-1.179,11.75 -2.35,31.142 -2.35,41.142l35.558,-0l0,11.45l-35.833,-0c-0.879,25 -1.771,57.004 -1.771,80.804c0,20.863 3.233,33.221 20.275,33.221c5.742,0.004 11.431,-1.1 16.754,-3.25l1.171,0.592l0.588,7.633c-10.682,6.309 -22.853,9.66 -35.259,9.708" style="fill:#002855;fill-rule:nonzero;"/><path id="Path_251" d="M1167.59,206.871c-5,-0 -10.284,0.3 -14.396,0.592c0.583,-7.625 0.875,-15.571 0.875,-23.509l-1.171,0c-10.213,16.252 -28.11,26.145 -47.304,26.15c-37.621,0 -47.317,-22.033 -47.317,-50.533c0,-9.704 0.879,-23.508 0.879,-37.321l0,-3.525c0,-12.917 -0.587,-38.792 -1.466,-50.542c3.525,0.288 10,0.58 15.571,0.58c5.287,-0 11.462,-0.288 15.279,-0.58c-0.875,18.225 -1.771,52 -1.771,74.046l-0,8.521c-0,19.975 3.529,42.604 28.8,42.604c24.687,0 38.204,-18.512 38.204,-46.125l0,-19.7c0,-17.629 -0.583,-42.604 -2.083,-59.35c3.821,0.288 10.587,0.579 15.875,0.579c5.287,0 11.454,-0.287 15.871,-0.579c-1.48,16.459 -2.063,49.059 -2.063,66.692l0,12.358c0,17.629 0.583,40.834 2.063,60.225c-5.588,-0.287 -10.588,-0.591 -15.871,-0.591" style="fill:#002855;fill-rule:nonzero;"/><path id="Path_252" d="M1295.13,92.55l-2.058,0.304c-4.744,-3.261 -10.413,-4.912 -16.167,-4.708c-20.862,-0 -30.833,19.392 -30.833,43.492l0,11.462c0,17.617 0.583,47.6 2.063,64.346c-4.117,-0.288 -10.584,-0.592 -15.871,-0.592c-5.288,0 -11.75,0.304 -15.867,0.592c1.471,-16.158 2.35,-49.075 2.35,-66.704l0,-12.342c0,-17.629 -0.583,-42.6 -2.35,-60.229c4.117,0.292 10.575,0.579 15.867,0.579c5.291,0 10.875,-0.287 14.104,-0.579c-1.096,9.954 -1.683,19.957 -1.758,29.971l1.175,-0c10.279,-21.167 24.087,-32.025 41.429,-32.025c4.971,-0.065 9.924,0.628 14.687,2.054l0.592,1.767c-3.146,7.292 -5.604,14.862 -7.342,22.612" style="fill:#002855;fill-rule:nonzero;"/><path id="Path_253" d="M1340.96,167.208c-0,20.28 10.875,27.034 23.504,27.034c13.818,-0.049 26.151,-8.939 30.566,-22.034c0.884,-10 1.175,-27.337 1.175,-41.137c-39.375,6.458 -55.241,13.512 -55.241,36.142m79.337,41.141c-15.579,0 -23.212,-8.225 -24.679,-20.566c-10.464,13.39 -26.49,21.295 -43.483,21.45c-20.575,-0 -39.375,-11.763 -39.375,-38.5c-0,-24.088 15,-35.834 41.129,-40.834c38.204,-7.358 42.021,-10 42.021,-17.341l-0,-3.525c-0,-19.092 -8.225,-32.317 -31.446,-32.317c-16.158,-0 -27.321,10.287 -30.254,29.379l-5.588,0c-0.827,-8.615 -2.302,-17.156 -4.412,-25.55c10.587,-10 31.154,-16.458 49.666,-16.458c43.492,-0 50.259,22.916 50.259,52.6c-0,13.804 -1.479,43.771 -1.479,58.475c-0,14.096 3.829,22.916 15.575,22.916c1.672,0.088 3.349,-0.008 5,-0.287l-0,6.75c-7.398,2.44 -15.127,3.732 -22.917,3.829" style="fill:#002855;fill-rule:nonzero;"/><path id="Path_254" d="M170.496,79.082c-11.809,12.622 -26.074,22.698 -41.917,29.608c-16.787,6.578 -34.674,9.902 -52.704,9.796c-13.704,0.009 -27.353,-1.749 -40.608,-5.229c21.033,-26.25 55.32,-41.867 92.183,-41.867c14.694,-0.038 29.275,2.567 43.046,7.692m78.75,-4.937c-9.851,6.046 -19.012,13.149 -27.321,21.183c-8.309,-8.033 -17.468,-15.136 -27.317,-21.183c10.586,-12.316 19.749,-25.786 27.317,-40.155c7.569,14.369 16.734,27.839 27.321,40.155m159.316,39.116c-13.256,3.481 -26.906,5.238 -40.612,5.229c-18.029,0.106 -35.914,-3.218 -52.7,-9.795c-15.843,-6.909 -30.107,-16.986 -41.913,-29.609c13.768,-5.125 28.347,-7.731 43.038,-7.691c36.862,-0 71.15,15.62 92.183,41.866m25.488,2.084c-18.571,-30.73 -61.313,-61.738 -114.929,-61.738c-20.179,0.019 -40.092,4.619 -58.234,13.454c-14.372,-17.105 -26.917,-35.665 -37.429,-55.379c-0.571,-1.071 -1.69,-1.742 -2.904,-1.742c-1.214,-0 -2.333,0.671 -2.904,1.742c-10.511,19.723 -23.06,38.289 -37.442,55.396c-18.138,-8.836 -38.049,-13.437 -58.225,-13.454c-53.625,-0 -96.358,31.008 -114.929,61.737l-0.371,0.579c-0.287,0.501 -0.438,1.068 -0.438,1.645c0,1.252 0.71,2.4 1.83,2.96l0.454,0.225c20.366,8.616 42.249,13.081 64.362,13.133c20.28,0.108 40.354,-4.083 58.896,-12.296c19.166,-8.806 36.528,-21.099 51.2,-36.25c10.165,5.45 19.51,12.306 27.759,20.367c-21.925,24.941 -38.671,56.9 -58.488,100.166l-1.054,2.313l2.5,-0.383c2.291,-0.357 4.606,-0.538 6.925,-0.542c5.766,-0.08 11.486,1.047 16.792,3.308l1.641,0.734l0.275,-1.78c5.167,-34.199 19.397,-66.398 41.209,-93.241c21.819,26.806 36.044,58.987 41.183,93.166l0.267,1.759l1.633,-0.725c5.269,-2.198 10.933,-3.294 16.642,-3.221c2.452,0.011 4.899,0.198 7.325,0.558l2.129,0l-0.892,-1.941c-19.808,-43.267 -36.562,-75.225 -58.479,-100.167c8.243,-8.064 17.586,-14.921 27.75,-20.367c14.676,15.15 32.039,27.442 51.204,36.25c18.54,8.212 38.611,12.403 58.888,12.296c22.119,-0.053 44.007,-4.518 64.379,-13.133c1.273,-0.633 2.082,-1.937 2.082,-3.359c-0,-0.731 -0.214,-1.447 -0.616,-2.058" style="fill:#00a82d;fill-rule:nonzero;"/></g></svg>